<?xml version="1.0" encoding="utf-8"?><!DOCTYPE svg PUBLIC "-//W3C//DTD SVG 1.1//EN" "http://www.w3.org/Graphics/SVG/1.1/DTD/svg11.dtd"><svg version="1.1" xmlns="http://www.w3.org/2000/svg" xmlns:xlink="http://www.w3.org/1999/xlink" width="26.094" height="28" viewBox="0 0 26.094 28" data-code="61509" data-tags="share-square-o"><g fill="#444" transform="scale(0.02734375 0.02734375)"><path d="M804.571 565.143v148c0 90.857-73.714 164.571-164.571 164.571h-475.429c-90.857 0-164.571-73.714-164.571-164.571v-475.429c0-90.857 73.714-164.571 164.571-164.571h145.714c9.714 0 18.286 8 18.286 18.286 0 9.143-6.286 16.571-14.857 18.286-28.571 9.714-54.286 21.143-76 34.286-2.857 1.143-5.714 2.286-9.143 2.286h-64c-50.286 0-91.429 41.143-91.429 91.429v475.429c0 50.286 41.143 91.429 91.429 91.429h475.429c50.286 0 91.429-41.143 91.429-91.429v-122.286c0-6.857 4-13.143 10.286-16.571 11.429-5.143 21.714-12.571 30.857-21.143 5.143-5.143 13.143-7.429 20-4.571s12 9.143 12 16.571zM940 281.714l-219.429 219.429c-6.857 7.429-16 10.857-25.714 10.857-4.571 0-9.714-1.143-14.286-2.857-13.143-5.714-22.286-18.857-22.286-33.714v-109.714h-91.429c-125.714 0-205.714 24-250.286 74.857-46.286 53.143-60 138.857-42.286 270.286 1.143 8-4 16-11.429 19.429-2.286 0.571-4.571 1.143-6.857 1.143-5.714 0-11.429-2.857-14.857-7.429-4-5.714-94.857-134.286-94.857-248.571 0-153.143 48-329.143 420.571-329.143h91.429v-109.714c0-14.857 9.143-28 22.286-33.714 4.571-1.714 9.714-2.857 14.286-2.857 9.714 0 18.857 4 25.714 10.857l219.429 219.429c14.286 14.286 14.286 37.143 0 51.429z" /></g></svg>